{
  "accessors": [
    {
      "bufferView": 2,
      "componentType": 5126,
      "count": 5568,
      "max": [
        19.579563140869141,
        12.815471649169922,
        3.2993040084838867
      ],
      "min": [
        -19.07438850402832,
        -12.815472602844238,
        -18.944559097290039
      ],
      "type": "VEC3"
    },
    {
      "bufferView": 2,
      "byteOffset": 66816,
      "componentType": 5126,
      "count": 5568,
      "max": [
        5.4956713029241655e-06,
        3.8998480000884683e-09,
        1
      ],
      "min": [
        -3.2704313071008073e-06,
        -3.8998497764453077e-09,
        -1
      ],
      "type": "VEC3"
    },
    {
      "bufferView": 3,
      "componentType": 5126,
      "count": 5568,
      "max": [
        0.91017305850982666,
        -0.4142284095287323,
        2.976380073960172e-06,
        1
      ],
      "min": [
        0.9100380539894104,
        -0.41452482342720032,
        -5.0015391934721265e-06,
        -1
      ],
      "type": "VEC4"
    },
    {
      "bufferView": 1,
      "componentType": 5126,
      "count": 5568,
      "max": [
        0.98773312568664551,
        0.99674689769744873
      ],
      "min": [
        0.0068638622760772705,
        0.0072191953659057617
      ],
      "type": "VEC2"
    },
    {
      "bufferView": 0,
      "componentType": 5125,
      "count": 15906,
      "max": [
        5567
      ],
      "min": [
        0
      ],
      "type": "SCALAR"
    }
  ],
  "asset": {
    "extras": {
      "author": "Lite (https://sketchfab.com/lite)",
      "license": "CC-BY-4.0 (http://creativecommons.org/licenses/by/4.0/)",
      "source": "https://sketchfab.com/models/1ea53a2b54f045ccbff7fc5af3c6d67a",
      "title": "Pride Pattern"
    },
    "generator": "Sketchfab-3.18.5",
    "version": "2.0"
  },
  "bufferViews": [
    {
      "buffer": 0,
      "byteLength": 63624,
      "byteOffset": 0,
      "name": "floatBufferViews",
      "target": 34963
    },
    {
      "buffer": 0,
      "byteLength": 44544,
      "byteOffset": 63624,
      "byteStride": 8,
      "name": "floatBufferViews",
      "target": 34962
    },
    {
      "buffer": 0,
      "byteLength": 133632,
      "byteOffset": 108168,
      "byteStride": 12,
      "name": "floatBufferViews",
      "target": 34962
    },
    {
      "buffer": 0,
      "byteLength": 89088,
      "byteOffset": 241800,
      "byteStride": 16,
      "name": "floatBufferViews",
      "target": 34962
    }
  ],
  "buffers": [
    {
      "byteLength": 330888,
      "uri": "scene.bin"
    }
  ],
  "extensionsUsed": [
    "KHR_materials_unlit"
  ],
  "images": [
    {
      "uri": "textures/Pride_baseColor.png"
    }
  ],
  "materials": [
    {
      "doubleSided": true,
      "emissiveFactor": [
        0,
        0,
        0
      ],
      "extensions": {
        "KHR_materials_unlit": {}
      },
      "name": "Pride",
      "pbrMetallicRoughness": {
        "baseColorFactor": [
          1,
          1,
          1,
          1
        ],
        "baseColorTexture": {
          "index": 0,
          "texCoord": 0
        },
        "metallicFactor": 0,
        "roughnessFactor": 1
      }
    }
  ],
  "meshes": [
    {
      "name": "Circle_Pride_0",
      "primitives": [
        {
          "attributes": {
            "NORMAL": 1,
            "POSITION": 0,
            "TANGENT": 2,
            "TEXCOORD_0": 3
          },
          "indices": 4,
          "material": 0,
          "mode": 4
        }
      ]
    }
  ],
  "nodes": [
    {
      "children": [
        1
      ],
      "name": "RootNode (gltf orientation matrix)",
      "rotation": [
        -0.70710678118654746,
        -0,
        -0,
        0.70710678118654757
      ]
    },
    {
      "children": [
        2
      ],
      "name": "RootNode (model correction matrix)"
    },
    {
      "children": [
        3
      ],
      "matrix": [
        1,
        0,
        0,
        0,
        0,
        0,
        1,
        0,
        0,
        -1,
        0,
        0,
        0,
        0,
        0,
        1
      ],
      "name": "PridePattern1.1.fbx"
    },
    {
      "children": [
        4
      ],
      "name": "RootNode"
    },
    {
      "children": [
        5
      ],
      "matrix": [
        91.008694162957539,
        2.7755577733211282e-15,
        -41.441755665418221,
        0,
        -41.441755665418185,
        -4.3711393175964549e-06,
        -91.008694162957454,
        0,
        -1.8114766048293873e-06,
        99.999999999999915,
        -3.9781162142205062e-06,
        0,
        -89.132156372070312,
        605.90753173828125,
        -4.5460408728104085e-05,
        1
      ],
      "name": "Circle"
    },
    {
      "mesh": 0,
      "name": "Circle_Pride_0"
    }
  ],
  "samplers": [
    {
      "magFilter": 9729,
      "minFilter": 9987,
      "wrapS": 10497,
      "wrapT": 10497
    }
  ],
  "scene": 0,
  "scenes": [
    {
      "name": "OSG_Scene",
      "nodes": [
        0
      ]
    }
  ],
  "textures": [
    {
      "sampler": 0,
      "source": 0
    }
  ]
}

