{
  "accessors": [
    {
      "bufferView": 1,
      "componentType": 5126,
      "count": 2562,
      "max": [
        110.00000762939453,
        35,
        35.001495361328125
      ],
      "min": [
        100.00000762939453,
        24.999996185302734,
        25.001493453979492
      ],
      "type": "VEC3"
    },
    {
      "bufferView": 1,
      "byteOffset": 30744,
      "componentType": 5126,
      "count": 2562,
      "max": [
        0.99999994039535522,
        0.99999994039535522,
        1
      ],
      "min": [
        -0.99999988079071045,
        -1,
        -1
      ],
      "type": "VEC3"
    },
    {
      "bufferView": 0,
      "componentType": 5125,
      "count": 15360,
      "max": [
        2561
      ],
      "min": [
        0
      ],
      "type": "SCALAR"
    },
    {
      "bufferView": 1,
      "byteOffset": 61488,
      "componentType": 5126,
      "count": 2562,
      "max": [
        110.00000762939453,
        65,
        35.001495361328125
      ],
      "min": [
        100.00000762939453,
        54.999996185302734,
        25.001493453979492
      ],
      "type": "VEC3"
    },
    {
      "bufferView": 1,
      "byteOffset": 92232,
      "componentType": 5126,
      "count": 2562,
      "max": [
        0.99999982118606567,
        0.99999994039535522,
        1
      ],
      "min": [
        -0.99999994039535522,
        -1,
        -1
      ],
      "type": "VEC3"
    },
    {
      "bufferView": 0,
      "byteOffset": 61440,
      "componentType": 5125,
      "count": 15360,
      "max": [
        2561
      ],
      "min": [
        0
      ],
      "type": "SCALAR"
    },
    {
      "bufferView": 1,
      "byteOffset": 122976,
      "componentType": 5126,
      "count": 2562,
      "max": [
        10,
        35,
        35.001495361328125
      ],
      "min": [
        0,
        24.999996185302734,
        25.001493453979492
      ],
      "type": "VEC3"
    },
    {
      "bufferView": 1,
      "byteOffset": 153720,
      "componentType": 5126,
      "count": 2562,
      "max": [
        0.99999994039535522,
        1,
        1
      ],
      "min": [
        -0.99999988079071045,
        -1,
        -1
      ],
      "type": "VEC3"
    },
    {
      "bufferView": 0,
      "byteOffset": 122880,
      "componentType": 5125,
      "count": 15360,
      "max": [
        2561
      ],
      "min": [
        0
      ],
      "type": "SCALAR"
    },
    {
      "bufferView": 1,
      "byteOffset": 184464,
      "componentType": 5126,
      "count": 2562,
      "max": [
        110.00000762939453,
        45,
        35.001495361328125
      ],
      "min": [
        100.00000762939453,
        35,
        25.001493453979492
      ],
      "type": "VEC3"
    },
    {
      "bufferView": 1,
      "byteOffset": 215208,
      "componentType": 5126,
      "count": 2562,
      "max": [
        0.99999994039535522,
        0.99999994039535522,
        1
      ],
      "min": [
        -0.99999994039535522,
        -1,
        -1
      ],
      "type": "VEC3"
    },
    {
      "bufferView": 0,
      "byteOffset": 184320,
      "componentType": 5125,
      "count": 15360,
      "max": [
        2561
      ],
      "min": [
        0
      ],
      "type": "SCALAR"
    },
    {
      "bufferView": 1,
      "byteOffset": 245952,
      "componentType": 5126,
      "count": 2562,
      "max": [
        110.00000762939453,
        25.000003814697266,
        35.001495361328125
      ],
      "min": [
        100.00000762939453,
        15.000003814697266,
        25.001493453979492
      ],
      "type": "VEC3"
    },
    {
      "bufferView": 1,
      "byteOffset": 276696,
      "componentType": 5126,
      "count": 2562,
      "max": [
        0.99999982118606567,
        0.99999994039535522,
        1
      ],
      "min": [
        -0.99999994039535522,
        -1,
        -1
      ],
      "type": "VEC3"
    },
    {
      "bufferView": 0,
      "byteOffset": 245760,
      "componentType": 5125,
      "count": 15360,
      "max": [
        2561
      ],
      "min": [
        0
      ],
      "type": "SCALAR"
    },
    {
      "bufferView": 1,
      "byteOffset": 307440,
      "componentType": 5126,
      "count": 16,
      "max": [
        85.001495361328125,
        59.999996185302734,
        60.00299072265625
      ],
      "min": [
        24.998508453369141,
        0,
        0
      ],
      "type": "VEC3"
    },
    {
      "bufferView": 1,
      "byteOffset": 307632,
      "componentType": 5126,
      "count": 16,
      "max": [
        0.89443612098693848,
        1,
        0.8944360613822937
      ],
      "min": [
        -0.89440041780471802,
        -0.44726723432540894,
        -0.89440035820007324
      ],
      "type": "VEC3"
    },
    {
      "bufferView": 0,
      "byteOffset": 307200,
      "componentType": 5125,
      "count": 18,
      "max": [
        15
      ],
      "min": [
        0
      ],
      "type": "SCALAR"
    },
    {
      "bufferView": 1,
      "byteOffset": 307824,
      "componentType": 5126,
      "count": 2562,
      "max": [
        110.00000762939453,
        15,
        35.001495361328125
      ],
      "min": [
        100.00000762939453,
        5,
        25.001493453979492
      ],
      "type": "VEC3"
    },
    {
      "bufferView": 1,
      "byteOffset": 338568,
      "componentType": 5126,
      "count": 2562,
      "max": [
        0.99999982118606567,
        0.99999994039535522,
        1
      ],
      "min": [
        -0.99999994039535522,
        -1,
        -1
      ],
      "type": "VEC3"
    },
    {
      "bufferView": 0,
      "byteOffset": 307272,
      "componentType": 5125,
      "count": 15360,
      "max": [
        2561
      ],
      "min": [
        0
      ],
      "type": "SCALAR"
    },
    {
      "bufferView": 1,
      "byteOffset": 369312,
      "componentType": 5126,
      "count": 2562,
      "max": [
        110.00000762939453,
        55,
        35.001495361328125
      ],
      "min": [
        100.00000762939453,
        45,
        25.001493453979492
      ],
      "type": "VEC3"
    },
    {
      "bufferView": 1,
      "byteOffset": 400056,
      "componentType": 5126,
      "count": 2562,
      "max": [
        0.99999994039535522,
        0.99999994039535522,
        1
      ],
      "min": [
        -0.99999994039535522,
        -1,
        -1
      ],
      "type": "VEC3"
    },
    {
      "bufferView": 0,
      "byteOffset": 368712,
      "componentType": 5125,
      "count": 15360,
      "max": [
        2561
      ],
      "min": [
        0
      ],
      "type": "SCALAR"
    }
  ],
  "asset": {
    "extras": {
      "author": "MARSOFT TEAM (https://sketchfab.com/bear59814)",
      "license": "CC-BY-4.0 (http://creativecommons.org/licenses/by/4.0/)",
      "source": "https://sketchfab.com/models/a5b67eb500c342579c01f013d0eb3856",
      "title": "The Dark Side of the Moon"
    },
    "generator": "Sketchfab-3.18.6",
    "version": "2.0"
  },
  "bufferViews": [
    {
      "buffer": 0,
      "byteLength": 430152,
      "byteOffset": 0,
      "name": "floatBufferViews",
      "target": 34963
    },
    {
      "buffer": 0,
      "byteLength": 430800,
      "byteOffset": 430152,
      "byteStride": 12,
      "name": "floatBufferViews",
      "target": 34962
    }
  ],
  "buffers": [
    {
      "byteLength": 860952,
      "uri": "scene.bin"
    }
  ],
  "materials": [
    {
      "doubleSided": true,
      "emissiveFactor": [
        0,
        0,
        0
      ],
      "name": "Amarillo",
      "pbrMetallicRoughness": {
        "baseColorFactor": [
          0.99607800000000002,
          0.94509799999999999,
          0,
          1
        ],
        "metallicFactor": 0,
        "roughnessFactor": 0.59999999999999998
      }
    },
    {
      "doubleSided": true,
      "name": "material",
      "pbrMetallicRoughness": {
        "baseColorFactor": [
          0.042133639799999997,
          0.055741916000000002,
          0.33108273649999997,
          1
        ],
        "metallicFactor": 0,
        "roughnessFactor": 0.59999999999999998
      }
    },
    {
      "doubleSided": true,
      "name": "Blanco",
      "pbrMetallicRoughness": {
        "baseColorFactor": [
          1,
          1,
          1,
          1
        ],
        "metallicFactor": 0,
        "roughnessFactor": 0.59999999999999998
      }
    },
    {
      "doubleSided": true,
      "name": "Green",
      "pbrMetallicRoughness": {
        "baseColorFactor": [
          0,
          1,
          0.12739545999999999,
          1
        ],
        "metallicFactor": 0,
        "roughnessFactor": 0.59999999999999998
      }
    },
    {
      "doubleSided": true,
      "name": "Naranja",
      "pbrMetallicRoughness": {
        "baseColorFactor": [
          1,
          0.20024719329999999,
          0.0010274253999999999,
          1
        ],
        "metallicFactor": 0,
        "roughnessFactor": 0.59999999999999998
      }
    },
    {
      "alphaMode": "BLEND",
      "doubleSided": true,
      "emissiveFactor": [
        0,
        0,
        0
      ],
      "name": "Negro",
      "pbrMetallicRoughness": {
        "baseColorFactor": [
          0,
          0,
          0,
          0.98999999999999999
        ],
        "metallicFactor": 0,
        "roughnessFactor": 0.59999999999999998
      }
    },
    {
      "doubleSided": true,
      "emissiveFactor": [
        0,
        0,
        0
      ],
      "name": "Rojo_oscuro",
      "pbrMetallicRoughness": {
        "baseColorFactor": [
          1,
          0,
          0,
          1
        ],
        "metallicFactor": 0,
        "roughnessFactor": 0.59999999999999998
      }
    },
    {
      "doubleSided": true,
      "emissiveFactor": [
        0,
        0,
        0
      ],
      "name": "Turquesa",
      "pbrMetallicRoughness": {
        "baseColorFactor": [
          0,
          0.20350468369999999,
          0.47230732040000001,
          1
        ],
        "metallicFactor": 0,
        "roughnessFactor": 0.59999999999999998
      }
    }
  ],
  "meshes": [
    {
      "primitives": [
        {
          "attributes": {
            "NORMAL": 1,
            "POSITION": 0
          },
          "indices": 2,
          "material": 0,
          "mode": 4
        }
      ]
    },
    {
      "primitives": [
        {
          "attributes": {
            "NORMAL": 4,
            "POSITION": 3
          },
          "indices": 5,
          "material": 1,
          "mode": 4
        }
      ]
    },
    {
      "primitives": [
        {
          "attributes": {
            "NORMAL": 7,
            "POSITION": 6
          },
          "indices": 8,
          "material": 2,
          "mode": 4
        }
      ]
    },
    {
      "primitives": [
        {
          "attributes": {
            "NORMAL": 10,
            "POSITION": 9
          },
          "indices": 11,
          "material": 3,
          "mode": 4
        }
      ]
    },
    {
      "primitives": [
        {
          "attributes": {
            "NORMAL": 13,
            "POSITION": 12
          },
          "indices": 14,
          "material": 4,
          "mode": 4
        }
      ]
    },
    {
      "primitives": [
        {
          "attributes": {
            "NORMAL": 16,
            "POSITION": 15
          },
          "indices": 17,
          "material": 5,
          "mode": 4
        }
      ]
    },
    {
      "primitives": [
        {
          "attributes": {
            "NORMAL": 19,
            "POSITION": 18
          },
          "indices": 20,
          "material": 6,
          "mode": 4
        }
      ]
    },
    {
      "primitives": [
        {
          "attributes": {
            "NORMAL": 22,
            "POSITION": 21
          },
          "indices": 23,
          "material": 7,
          "mode": 4
        }
      ]
    }
  ],
  "nodes": [
    {
      "children": [
        1
      ],
      "name": "RootNode (gltf orientation matrix)",
      "rotation": [
        -0.70710678118654746,
        -0,
        -0,
        0.70710678118654757
      ]
    },
    {
      "children": [
        2
      ],
      "matrix": [
        1,
        0,
        0,
        0,
        0,
        0,
        -1,
        0,
        0,
        1,
        0,
        0,
        0,
        -30.000024795532227,
        -29.999967575073242,
        1
      ],
      "name": "RootNode (model correction matrix)"
    },
    {
      "children": [
        3,
        4,
        5,
        6,
        7,
        8,
        9,
        10
      ],
      "matrix": [
        1,
        0,
        0,
        0,
        0,
        1,
        0,
        0,
        0,
        0,
        1,
        0,
        -55.000003814697266,
        -59.999996185302734,
        -30.001495361328125,
        1
      ],
      "name": "pink.obj.cleaner.gles"
    },
    {
      "mesh": 0,
      "name": ""
    },
    {
      "mesh": 1,
      "name": ""
    },
    {
      "mesh": 2,
      "name": ""
    },
    {
      "mesh": 3,
      "name": ""
    },
    {
      "mesh": 4,
      "name": ""
    },
    {
      "mesh": 5,
      "name": ""
    },
    {
      "mesh": 6,
      "name": ""
    },
    {
      "mesh": 7,
      "name": ""
    }
  ],
  "scene": 0,
  "scenes": [
    {
      "name": "OSG_Scene",
      "nodes": [
        0
      ]
    }
  ]
}

